<?xml version="1.0" encoding="utf-8"?>
<!-- Generator: Adobe Illustrator 25.4.1, SVG Export Plug-In . SVG Version: 6.00 Build 0)  -->
<svg version="1.1" id="Layer_1" xmlns="http://www.w3.org/2000/svg" xmlns:xlink="http://www.w3.org/1999/xlink" x="0px" y="0px"
	 viewBox="0 0 112 20.1" style="enable-background:new 0 0 112 20.1;" xml:space="preserve">
<style type="text/css">
	.st0{fill:#E21F26;}
	.st1{fill:#103856;}
</style>
<path class="st0" d="M22.2,11.5l-1.7,7.4c-3.2,0.7-7.4,1.2-10.9,1.2c-7.9,0-9.6-3.3-8.6-7.7c1.3-5.6,5.9-8,12.9-8
	c5.7,0,9.5,1.2,8.8,4.9h-6.9c0-0.4-0.2-0.8-0.6-1.2c-0.4-0.4-1.1-0.6-2.1-0.6c-2.8,0-4.8,1.8-5.4,4.5C7.1,14.9,8.1,17,11.3,17
	c1.4,0,2.5-0.2,3.2-0.5l0.5-2.3H15h-3.8l3.5-3.2h4.5c0,0-2.7,1.1-3.2,1.3c-0.9,0.3-2.2,0.8-4.1,1.6c1.1-0.2,2.2-0.5,3.1-0.7
	c1.6-0.4,2.9-0.8,4.4-1.3c0.4-0.1,1.4-0.4,2.4-0.8c0.7-0.2,1.8-0.9,2.1-1.1c1.3-0.9,2-1.5,2.8-2.5c0.5-0.7,0.7-1.3,0.7-2
	c0-1.1-1.2-2.4-2.4-2.8c-0.4-0.2-1.1-0.5-1.8-0.7c-0.6-0.2-1.3-0.3-1.9-0.4c-1.8-0.3-3.7-0.3-3.8-0.3h-0.8c-0.1,0-2.4,0.1-2.4,0.1
	c-0.7,0.1-1.8,0.2-2.6,0.3C9.4,2,8.4,2.3,6.3,2.9C5.8,3,4.4,3.5,3.1,4.1C1.8,4.7,0.9,5.2,0,5.8V5.5C0.7,5,1.2,4.7,1.5,4.6
	c0.6-0.3,1.3-0.7,2.8-1.4c2.5-1.1,6.1-2.2,9.2-2.7c0.9-0.1,2.9-0.4,5.1-0.4c1,0,4,0,6.4,0.6c1.3,0.3,2.5,0.7,3.3,1.4
	c0.9,0.7,1.6,1.5,1.6,2.5c0,0.1,0,0.7-0.1,1.1c-0.5,1.3-1.2,1.9-2.5,2.9c0,0-0.7,0.5-0.8,0.6c-0.5,0.4-1.3,0.9-1.9,1.2
	c-0.5,0.3-1.4,0.7-1.7,0.9C22.9,11.2,22.6,11.4,22.2,11.5"/>
<path class="st1" d="M36.6,11.7c0-0.2-0.1-0.4-0.3-0.6c-0.2-0.2-0.5-0.3-1-0.3c-1.4,0-2.3,0.9-2.6,2.1c-0.3,1.4,0.1,2.4,1.7,2.4
	c0.7,0,1.2-0.1,1.6-0.2l0.2-1.1h-1.9l0.3-1.5l5.1,0l-0.9,3.8c-1.6,0.3-3.6,0.6-5.3,0.6c-3.8,0-4.7-1.6-4.2-3.7
	c0.6-2.7,2.9-3.8,6.3-3.8c2.8,0,4.6,0.6,4.3,2.4H36.6z M42.3,9.5h5.4c2.1,0,3.3,0.4,2.9,2c-0.2,0.9-1.1,1.5-2,1.7l0,0.1
	c0.7,0,1.3,0.3,1.3,1l-0.1,2.4l-3.2,0l0.1-1.6c0.1-0.9-0.1-1-1.2-1l-1,0l-0.6,2.6l-3.2,0L42.3,9.5z M44.8,12.6l1.2,0
	c0.7,0,1.3-0.2,1.4-0.9c0.1-0.6-0.3-0.8-1.1-0.8l-1.2,0L44.8,12.6z M51.2,16.6h3.2L56,9.5l-3.2,0L51.2,16.6z M56.2,16.6H59l1.2-5.1
	h0l1.6,5.1h4.6L68,9.5l-2.8,0l-1.1,4.8h0l-1.5-4.8l-4.7,0L56.2,16.6z M71.8,15h0.9c1.5,0,2.5-0.6,2.8-1.9c0.3-1.3-0.4-1.9-1.9-1.9
	h-0.9L71.8,15z M69.8,9.5h4.1c2.3,0,3.7,0.2,4.5,1.2c0.4,0.5,0.6,1.4,0.4,2.5c-0.2,1-0.8,2.1-1.6,2.6c-1.1,0.7-2,0.9-4.3,0.9h-4.7
	L69.8,9.5z M81.2,9.5l5.5,0c2.1,0,3.3,0.4,2.9,2c-0.2,0.9-1.1,1.5-2,1.7l0,0.1c0.7,0,1.3,0.3,1.3,1l-0.1,2.4l-3.2,0l0.1-1.6
	c0.1-0.9-0.1-1-1.2-1h-1l-0.6,2.6h-3.2L81.2,9.5z M83.7,12.7h1.2c0.7,0,1.3-0.2,1.4-0.9c0.1-0.6-0.3-0.9-1.1-0.9h-1.2L83.7,12.7z
	 M100.5,13.1c-0.3,1.1-0.8,2-1.6,2.5c-1,0.7-2.4,1.2-4.4,1.2c-3.7,0-4.7-1.6-4.3-3.8c0.3-1.4,1.1-2.4,2.2-3c0.8-0.5,1.9-0.8,3.8-0.8
	C100,9.3,101,10.9,100.5,13.1 M97.3,13.1c0.3-1.5-0.3-2.1-1.3-2.1c-1.1,0-2,0.7-2.3,2.1c-0.3,1.5,0.3,2.1,1.3,2.1
	C96,15.2,96.9,14.5,97.3,13.1 M104.9,15l0.9,0c1.5,0,2.5-0.6,2.8-1.9c0.3-1.3-0.4-1.9-1.9-1.9h-0.9L104.9,15z M102.9,9.5l4.1,0
	c2.3,0,3.7,0.2,4.5,1.2c0.4,0.5,0.6,1.4,0.4,2.4c-0.2,1-0.8,2.1-1.6,2.6c-1.1,0.7-2,0.9-4.3,0.9h-4.7L102.9,9.5z"/>
</svg>
